Coordinates
version=1
nRows=11
nColumns=42
inDegrees=yes

Units are S.I. units (second, meters, Newtons, ...)
If the header above contains a line with 'inDegrees', this indicates whether rotational values are in degrees (yes) or radians (no).

endheader
time	pelvis_tilt	pelvis_list	pelvis_rotation	pelvis_tx	pelvis_ty	pelvis_tz	hip_flexion_r	hip_adduction_r	hip_rotation_r	knee_angle_r	knee_adduction_r	knee_angle_r_beta	ankle_angle_r	subtalar_angle_r	mtp_angle_r	hip_flexion_l	hip_adduction_l	hip_rotation_l	knee_angle_l	knee_adduction_l	knee_angle_l_beta	ankle_angle_l	subtalar_angle_l	mtp_angle_l	lumbar_extension	lumbar_bending	lumbar_rotation	arm_flex_r	arm_add_r	arm_rot_r	elbow_flex_r	pro_sup_r	wrist_flex_r	wrist_dev_r	arm_flex_l	arm_add_l	arm_rot_l	elbow_flex_l	pro_sup_l	wrist_flex_l	wrist_dev_l
      1.95000000	     -3.81202519	     -3.30890191	     -3.12135453	      1.72251693	      0.94923351	     -0.18010815	     -3.90863947	      7.82810643	     -7.77197976	     13.32666201	     -2.15483432	      0.23259413	     15.88094661	     -1.06797087	     -7.50205891	     31.75832431	     -5.61326785	    -10.35541901	     22.94457791	     -1.43913696	      0.40045843	      0.07922387	    -14.15732712	     -7.50205891	     -7.93625079	      4.66113052	      7.82191002	      3.22552297	    -12.09317606	     -1.14110168	     42.22812639	     90.00000001	      0.00000000	      0.00000000	     -1.32315479	     -7.89381653	     -7.49727779	     28.80573923	     90.00000001	      0.00000000	      0.00000000
      1.96000000	     -3.79134532	     -3.41021126	     -3.29748497	      1.73688125	      0.94653977	     -0.17971213	     -5.05902167	      7.80773634	     -7.84395217	     13.06313776	     -2.03807969	      0.22799476	     16.49608394	     -0.53199022	     -7.50200390	     31.64112574	     -5.63470831	    -10.81831245	     19.56703479	     -1.28377535	      0.34150918	      0.36788974	    -12.18358885	     -7.50200390	     -7.96034782	      4.70308856	      8.01192675	      3.41035948	    -12.22902996	     -0.92640458	     42.93924434	     90.00000001	      0.00000000	      0.00000000	     -1.63347077	     -7.86306733	     -8.27830345	     27.71399920	     90.00000001	      0.00000000	      0.00000000
      1.97000000	     -3.98615243	     -3.59969699	     -3.58721612	      1.75121233	      0.94350094	     -0.17916178	     -5.83035039	      7.88337083	     -8.02394319	     13.09718410	     -2.03921859	      0.22858899	     17.03888614	      0.44063960	     -7.50181531	     31.95269431	     -5.88860547	    -12.13047911	     16.85374991	     -1.29114638	      0.29415343	      1.20718697	     -8.29975503	     -7.50181531	     -7.76217072	      4.84059711	      8.30694707	      3.53463318	    -12.41049730	     -0.68205657	     43.55273297	     90.00000001	      0.00000000	      0.00000000	     -1.82527459	     -7.56179585	    -10.45896945	     26.54526567	     90.00000001	      0.00000000	      0.00000000
      1.98000000	     -4.27465516	     -3.74916044	     -3.85429744	      1.76553293	      0.94045327	     -0.17860002	     -6.47352963	      7.96077505	     -7.79590034	     13.20964512	     -2.05470074	      0.23055180	     17.32734938	      0.71058392	     -7.50178410	     32.15146065	     -6.02527155	    -12.34618716	     14.18905481	     -0.97584591	      0.24764572	      1.08802413	     -6.71558263	     -7.50178410	     -7.47842988	      4.91112985	      8.55364413	      3.74296802	    -12.43229699	     -0.69461234	     43.82603297	     90.00000001	      0.00000000	      0.00000000	     -2.42927142	     -7.67430953	    -10.66340077	     26.14851567	     90.00000001	      0.00000000	      0.00000000
      1.99000000	     -4.37400548	     -3.82345485	     -4.06912595	      1.78024924	      0.93763922	     -0.17825225	     -7.32941194	      7.88459852	     -7.57563087	     13.33644188	     -2.00624710	      0.23276482	     17.64820353	      0.99738780	     -7.50174849	     32.17606622	     -6.04001227	    -12.73712037	     12.06988170	     -0.74227541	      0.21065918	      1.14929615	     -4.83416760	     -7.50174849	     -7.34892540	      4.92572529	      8.77680338	      3.88319896	    -12.44678269	     -0.73223486	     44.11837170	     90.00000001	      0.00000000	      0.00000000	     -2.88780029	     -7.71390574	    -10.97510094	     25.46217061	     90.00000001	      0.00000000	      0.00000000
      2.00000000	     -4.37292678	     -3.88411798	     -4.30658479	      1.79522805	      0.93492955	     -0.17784088	     -8.22973650	      7.79477883	     -7.39622490	     13.59742593	     -2.06688375	      0.23731985	     17.90894461	      1.47786372	     -7.50154986	     32.51272974	     -6.17831467	    -14.68209747	     11.25143750	     -0.79007494	      0.19637463	      2.23893254	     -0.56131683	     -7.50154986	     -7.33837653	      4.88007980	      9.01370834	      3.94490363	    -12.40100167	     -0.95072879	     44.45644574	     90.00000001	      0.00000000	      0.00000000	     -2.90755541	     -7.48161737	    -13.20686793	     24.13223323	     90.00000001	      0.00000000	      0.00000000
      2.01000000	     -4.51013852	     -3.86181436	     -4.50743194	      1.81025197	      0.93226582	     -0.17757324	     -8.88779585	      7.61448173	     -7.02755074	     14.05416812	     -2.09533131	      0.24529151	     17.99383111	      1.65020319	     -7.50152068	     32.69292092	     -6.05936290	    -14.81035187	     10.44600981	     -0.63331280	      0.18231726	      2.07707547	      0.09364123	     -7.50152068	     -7.15982859	      4.75142137	      9.19313580	      3.98948595	    -12.36981543	     -1.02097283	     44.54372699	     90.00000001	      0.00000000	      0.00000000	     -3.39176588	     -7.56823515	    -13.43034375	     23.60257074	     90.00000001	      0.00000000	      0.00000000
      2.02000000	     -4.59760575	     -3.82843426	     -4.60252048	      1.82544924	      0.92979264	     -0.17739972	     -9.52531369	      7.47257268	     -6.71632683	     14.60901366	     -2.25442147	      0.25497539	     17.90182483	      1.77388151	     -7.50150831	     32.95979419	     -5.89129833	    -14.81498419	     10.46602305	     -0.55627324	      0.18266656	      1.99782180	      0.26716242	     -7.50150831	     -7.03273475	      4.59712184	      9.25823722	      3.99199374	    -12.28972055	     -1.06556156	     44.60787634	     90.00000001	      0.00000000	      0.00000000	     -3.94250057	     -7.68566057	    -13.54342507	     23.27076811	     90.00000001	      0.00000000	      0.00000000
      2.03000000	     -4.61900173	     -3.48451789	     -4.75528465	      1.84098137	      0.92764691	     -0.17751037	    -10.08886054	      6.86729044	     -6.32740832	     15.46658726	     -2.23917703	      0.26994287	     17.80438587	      1.74502049	     -7.50148367	     33.14132206	     -5.35513056	    -15.11397653	     10.93392280	     -0.75311436	      0.19083295	      1.57557824	      0.35908277	     -7.50148367	     -6.92590435	      4.09779228	      9.39173626	      3.96475455	    -12.11688218	     -1.36215267	     44.48784286	     90.00000001	      0.00000000	      0.00000000	     -4.15616923	     -7.74307880	    -13.93057040	     22.27411742	     90.00000001	      0.00000000	      0.00000000
      2.04000000	     -4.64864071	     -3.18798707	     -4.79668957	      1.85668588	      0.92568229	     -0.17764099	    -10.56230405	      6.40675380	     -6.01184008	     16.45370098	     -2.38636489	      0.28717126	     17.50016869	      1.83386312	     -7.50129311	     33.41603972	     -4.82149951	    -15.00155058	     11.99805244	     -1.00060573	      0.20940552	      1.10243645	      0.26076362	     -7.50129311	     -6.80014729	      3.62605380	      9.44015943	      3.90355483	    -11.67194547	     -2.46558278	     44.21338392	     90.00000001	      0.00000000	      0.00000000	     -3.91778683	     -7.53155906	    -16.98419991	     20.85793273	     90.00000001	      0.00000000	      0.00000000
      2.05000000	     -4.59269761	     -2.75519665	     -4.74682767	      1.87261190	      0.92408456	     -0.17803039	    -11.00747990	      5.76019772	     -5.76769898	     17.63583866	     -2.44726087	      0.30780345	     16.92083443	      1.60456467	     -7.50127735	     33.67117495	     -4.06131159	    -14.84788038	     13.50740007	     -1.43830275	      0.23574860	      0.37330041	     -0.21248393	     -7.50127735	     -6.75003855	      3.01149350	      9.33777426	      3.74090018	    -11.51712460	     -2.49090748	     44.00308531	     90.00000001	      0.00000000	      0.00000000	     -4.30654190	     -7.64043390	    -17.15885842	     20.46481351	     90.00000001	      0.00000000	      0.00000000
